HIERARCHY
ROOT root
{
	OFFSET 0.000000 0.000000 0.000000
	CHANNELS 6 Xposition Yposition Zposition Zrotation Yrotation Xrotation
	JOINT lhip
	{
		OFFSET 0.058581 -0.082280 -0.017664
		CHANNELS 3 Zrotation Yrotation Xrotation
		JOINT lknee
		{
			OFFSET 0.043451 -0.386469 0.008037
			CHANNELS 3 Zrotation Yrotation Xrotation
			JOINT lankle
			{
				OFFSET -0.014790 -0.426874 -0.037428
				CHANNELS 3 Zrotation Yrotation Xrotation
				JOINT ltoe
				{
					OFFSET 0.041054 -0.060286 0.122042
					CHANNELS 3 Zrotation Yrotation Xrotation
					End Site
					{
						OFFSET 0.000000 0.000000 0.000000
					}
				}
			}
		}
	}
	JOINT rhip
	{
		OFFSET -0.060310 -0.090513 -0.013543
		CHANNELS 3 Zrotation Yrotation Xrotation
		JOINT rknee
		{
			OFFSET -0.043257 -0.383688 -0.004843
			CHANNELS 3 Zrotation Yrotation Xrotation
			JOINT rankle
			{
				OFFSET 0.019056 -0.420046 -0.034562
				CHANNELS 3 Zrotation Yrotation Xrotation
				JOINT rtoe
				{
					OFFSET -0.034840 -0.062106 0.130323
					CHANNELS 3 Zrotation Yrotation Xrotation
					End Site
					{
						OFFSET 0.000000 0.000000 0.000000
					}
				}
			}
		}
	}
	JOINT lowerback
	{
		OFFSET 0.004439 0.124404 -0.038385
		CHANNELS 3 Zrotation Yrotation Xrotation
		JOINT upperback
		{
			OFFSET 0.004488 0.137956 0.026820
			CHANNELS 3 Zrotation Yrotation Xrotation
			JOINT chest
			{
				OFFSET -0.002265 0.056032 0.002855
				CHANNELS 3 Zrotation Yrotation Xrotation
				JOINT lowerneck
				{
					OFFSET -0.013390 0.211636 -0.033468
					CHANNELS 3 Zrotation Yrotation Xrotation
					JOINT upperneck
					{
						OFFSET 0.010113 0.088937 0.050410
						CHANNELS 3 Zrotation Yrotation Xrotation
						End Site
						{
							OFFSET 0.000000 0.000000 0.000000
						}
					}
				}
				JOINT lclavicle
				{
					OFFSET 0.071702 0.114000 -0.018898
					CHANNELS 3 Zrotation Yrotation Xrotation
					JOINT lshoulder
					{
						OFFSET 0.122921 0.045205 -0.019046
						CHANNELS 3 Zrotation Yrotation Xrotation
						JOINT lelbow
						{
							OFFSET 0.255332 -0.015649 -0.022946
							CHANNELS 3 Zrotation Yrotation Xrotation
							JOINT lwrist
							{
								OFFSET 0.265709 0.012698 -0.007375
								CHANNELS 3 Zrotation Yrotation Xrotation
								End Site
								{
									OFFSET 0.000000 0.000000 0.000000
								}
							}
						}
					}
				}
				JOINT rclavicle
				{
					OFFSET -0.082954 0.112472 -0.023707
					CHANNELS 3 Zrotation Yrotation Xrotation
					JOINT rshoulder
					{
						OFFSET -0.113228 0.046853 -0.008472
						CHANNELS 3 Zrotation Yrotation Xrotation
						JOINT relbow
						{
							OFFSET -0.260127 -0.014369 -0.031269
							CHANNELS 3 Zrotation Yrotation Xrotation
							JOINT rwrist
							{
								OFFSET -0.269108 0.006794 -0.006027
								CHANNELS 3 Zrotation Yrotation Xrotation
								End Site
								{
									OFFSET 0.000000 0.000000 0.000000
								}
							}
						}
					}
				}
			}
		}
	}
}
MOTION
Frames: 10
Frame Time: 0.033333
0.042691 -0.992503 0.993549 175.798955 1.244589 94.011352 4.123507 9.040216 0.817969 -2.772205 5.467416 -3.656720 1.540115 8.858655 -12.608884 0.000000 -0.000000 0.000000 -2.762388 -6.552440 -0.976499 6.792709 -3.132735 0.739655 11.584775 16.522486 -16.829140 0.000000 -0.000000 0.000000 3.287209 1.060810 -11.968429 0.433169 -2.738905 14.092873 -2.723783 0.880049 -4.757615 -1.146697 -0.700097 -3.489136 -0.417758 -13.708585 9.194071 -34.351794 -2.467109 3.615664 -53.771893 -2.996626 11.221986 9.773090 -26.498409 6.204195 -13.032388 -8.416442 -0.295685 35.530634 5.067601 10.414706 49.850430 9.960659 1.410150 -17.716882 17.752021 -15.617899 13.749611 8.948725 -21.364689 
0.041717 -0.994724 0.993201 176.309688 1.024869 94.143046 3.746521 8.330311 0.288007 -2.585055 5.562653 -3.332720 1.620849 8.925905 -12.663077 0.000000 -0.000000 0.000000 -3.142906 -6.692643 -1.455188 6.702923 -4.425466 1.138977 13.432392 15.151276 -15.806297 0.000000 -0.000000 0.000000 3.173036 0.934000 -11.050330 0.289992 -2.956419 12.346410 -2.638155 0.827817 -3.811724 -1.353829 -1.019789 -4.596230 -0.621406 -13.792486 10.349945 -34.067781 -2.383644 3.319194 -54.135660 -3.282624 11.366717 9.711415 -26.292794 6.091668 -13.030670 -8.554315 0.261585 35.255651 5.172973 9.857349 50.144356 9.921088 1.701736 -17.654784 17.535682 -16.750460 13.999265 9.071349 -20.086093 
0.040877 -0.997020 0.992919 176.769045 0.897664 94.314323 3.442786 7.507276 -0.300335 -2.366040 5.872699 -2.984251 1.691400 8.979332 -12.542812 0.000000 -0.000000 0.000000 -3.364845 -6.701491 -2.066509 6.495271 -5.998412 1.480932 14.575602 13.741657 -14.852514 0.000000 -0.000000 0.000000 3.186596 0.696565 -10.245456 0.264692 -3.018249 11.114506 -2.656310 0.742761 -3.559145 -1.313670 -1.131760 -4.954120 -0.726992 -13.685114 10.826227 -33.936883 -1.974161 3.212701 -54.316290 -3.821149 11.432795 9.446057 -25.917620 6.129495 -12.917086 -8.726936 1.048226 35.035816 5.020780 9.465636 50.484283 9.956594 2.251121 -17.757563 17.191285 -17.484597 13.644507 9.226717 -19.406578 
0.039913 -0.999293 0.992589 177.213080 0.726863 94.576662 3.063894 6.417509 -0.923066 -2.118345 6.444382 -2.756032 1.787095 8.954600 -12.575401 0.000000 -0.000000 0.000000 -3.725426 -6.863679 -3.047235 6.000726 -9.176883 2.015793 16.185974 11.016259 -12.362282 0.000000 -0.000000 0.000000 3.229373 0.417884 -9.568652 0.240311 -2.982521 9.873354 -2.673585 0.548290 -3.354792 -0.892372 -1.337578 -5.339769 -1.340501 -13.044989 11.574573 -33.996165 -1.702648 3.294174 -54.570880 -4.402637 11.407126 9.575572 -25.185492 5.575883 -12.801502 -9.192095 2.448715 34.667774 4.883621 9.165414 51.117467 10.074444 2.989966 -18.024282 16.683362 -18.685868 12.962924 9.430638 -18.505317 
0.039903 -0.999328 0.992620 177.198436 0.683194 94.552587 2.983961 6.324473 -0.864644 -2.079003 6.516351 -2.832751 1.909638 8.797250 -12.608333 0.000000 -0.000000 0.000000 -3.816799 -6.979527 -3.156001 5.862250 -9.892354 2.145443 16.643392 10.290526 -11.743153 0.000000 -0.000000 0.000000 3.183485 0.385837 -9.421956 0.260907 -2.921214 9.609416 -2.661926 0.527534 -3.302036 -0.841350 -1.398746 -5.339475 -1.439109 -12.978673 11.691120 -33.940589 -1.583111 3.366053 -54.664891 -4.543774 11.475866 9.526513 -25.048998 5.576342 -12.667853 -9.368578 2.633130 34.630541 4.818272 9.149444 51.214942 10.054535 3.201237 -18.077301 16.592677 -18.963830 12.765403 9.506087 -18.318703 
0.039633 -0.999438 0.992402 177.244785 0.497908 94.646394 2.727760 5.763279 -0.907891 -2.019910 7.031145 -2.987450 1.864156 8.722064 -12.585198 0.000000 -0.000000 0.000000 -4.158814 -6.840094 -3.508179 5.663024 -11.526957 2.412647 17.983386 9.164157 -11.063822 0.000000 -0.000000 0.000000 2.851755 0.403906 -9.415043 0.494886 -3.005926 9.366006 -2.763183 0.622404 -3.168815 -0.405483 -0.849122 -5.412686 -1.831770 -13.386462 11.861972 -33.596224 -1.562666 3.439510 -55.408990 -6.349170 12.839321 9.157816 -21.270721 6.275068 -9.588707 -12.554447 1.558782 34.499312 4.342370 8.761455 51.793715 9.991064 4.730923 -18.608669 16.574935 -18.475212 10.590055 10.124394 -20.176472 
0.039445 -0.999490 0.992468 177.287089 0.440887 94.691576 2.635212 5.555693 -0.963088 -1.990000 7.175051 -3.018370 1.894528 8.722208 -12.610474 0.000000 -0.000000 0.000000 -4.318757 -6.990908 -3.810174 5.421233 -12.911217 2.706504 19.193590 8.011796 -10.225411 0.000000 -0.000000 0.000000 2.808258 0.375083 -9.504189 0.530695 -2.953238 9.482824 -2.833481 0.536398 -3.269726 -0.156282 -0.779168 -5.290086 -2.009690 -13.258185 11.900980 -33.672337 -1.271354 3.567691 -55.358603 -6.552099 13.002675 9.116134 -21.404417 6.460297 -9.542894 -12.683041 1.509883 34.397526 4.226330 8.614258 52.218524 10.009099 5.251175 -18.896614 16.507025 -18.825444 10.185399 10.180378 -20.208017 
0.039319 -0.999679 0.992674 177.292979 0.320826 94.637120 2.488279 5.194225 -0.801503 -2.039645 7.415599 -3.201673 1.871746 8.923454 -12.573875 0.000000 -0.000000 0.000000 -4.563193 -7.052329 -3.996011 5.155775 -14.309505 2.972224 20.620060 6.824570 -9.294805 0.000000 -0.000000 0.000000 2.653444 0.363091 -9.331818 0.565766 -2.940530 9.393386 -2.864118 0.518250 -3.289371 0.104146 -0.431939 -5.368567 -2.126597 -13.089528 12.039398 -33.606973 -1.121479 3.634114 -55.570385 -6.816092 13.255118 9.263692 -21.159078 6.453086 -9.474048 -13.110429 1.683823 34.305864 4.096100 8.425227 52.598222 9.988241 5.769111 -19.150892 16.416596 -19.190282 9.799244 10.313333 -20.207739 
0.039239 -0.999684 0.992820 177.306669 0.239612 94.658693 2.339667 4.827163 -0.737018 -2.043183 7.597311 -3.253974 1.745413 9.403848 -12.470718 0.000000 -0.000000 0.000000 -4.772211 -7.091474 -4.199122 4.942777 -15.632255 3.166662 21.978654 5.660750 -8.871382 0.000000 -0.000000 0.000000 2.558072 0.364294 -9.356801 0.658294 -2.936119 9.291910 -2.918249 0.481682 -3.225620 0.307039 -0.091089 -5.304130 -2.411841 -12.945935 12.047392 -33.543834 -1.008663 3.809532 -55.764960 -7.089330 13.463766 9.273889 -20.977565 6.574742 -9.364223 -13.600323 1.798425 34.160084 4.017559 8.274776 52.953319 9.905409 6.260858 -19.337612 16.355225 -19.411652 9.395428 10.456829 -20.268052 
0.039125 -0.999458 0.992848 177.286157 0.103159 94.541918 2.132586 4.769259 -0.510551 -1.953727 7.684288 -3.467781 2.008404 8.837336 -12.792684 0.000000 -0.000000 0.000000 -5.094505 -7.382343 -4.265546 4.688485 -17.139749 3.422887 23.780563 4.567233 -7.933715 0.000000 -0.000000 0.000000 2.400041 0.371512 -9.184488 0.698407 -2.871577 9.045604 -2.935607 0.429667 -3.146799 0.594752 0.385005 -5.176647 -2.682099 -12.631661 12.217946 -33.450252 -0.999938 4.157709 -55.954352 -7.413332 13.636114 9.241446 -20.685944 6.830360 -9.055499 -14.331864 2.240430 34.018629 3.931065 8.234614 53.306359 9.911235 6.611391 -19.513199 16.184722 -19.778306 9.075994 10.661777 -20.133527 
